<svg width="84" height="44" viewBox="0 0 84 44" fill="none" xmlns="http://www.w3.org/2000/svg">
<path id="toggleOff" d="M60.375 43.2476C73.3975 43.2476 84 33.5525 84 21.6238C84 9.69506 73.3975 3.24249e-05 60.375 3.24249e-05L23.625 3.24249e-05C10.6128 3.24249e-05 0 9.71383 0 21.6238C0 33.5338 10.6128 43.2476 23.625 43.2476L60.375 43.2476ZM23.625 38.4423C13.4429 38.4423 5.25 30.9434 5.25 21.6238C5.25 12.3042 13.4429 4.80531 23.625 4.80531C33.8071 4.80531 42 12.3042 42 21.6238C42 30.9434 33.8071 38.4423 23.625 38.4423Z" fill="black"/>
</svg>
